<?xml version="1.0" encoding="utf-8"?>
<!-- Generator: Adobe Illustrator 24.0.2, SVG Export Plug-In . SVG Version: 6.00 Build 0)  -->
<svg version="1.1" id="Layer_1" xmlns="http://www.w3.org/2000/svg" xmlns:xlink="http://www.w3.org/1999/xlink" x="0px" y="0px"
	 viewBox="0 0 303.86 258.1" style="enable-background:new 0 0 303.86 258.1;" xml:space="preserve">
<style type="text/css">
	.st0{fill:#48331B;}
	.st1{fill:#4A351D;}
	.st2{fill:#48331A;}
	.st3{fill:#49341C;}
</style>
<path class="st0" d="M273.77,13.01c-0.26-0.24-0.53-0.48-0.79-0.71C273.24,12.53,273.51,12.77,273.77,13.01z"/>
<path class="st1" d="M15.87,13.93c-0.33-0.44-0.66-0.88-0.99-1.32C15.21,13.05,15.54,13.49,15.87,13.93z"/>
<path class="st2" d="M29.12,12.71c-0.31,0.38-0.62,0.77-0.94,1.15C28.5,13.47,28.81,13.09,29.12,12.71z"/>
<path class="st3" d="M287.11,12.65c-0.29,0.41-0.58,0.83-0.87,1.24C286.53,13.48,286.82,13.06,287.11,12.65z"/>
<path class="st2" d="M142.96,23.07c-0.24-0.33-0.48-0.66-0.72-0.99C142.49,22.41,142.72,22.74,142.96,23.07z"/>
<g>
	<path class="st2" d="M156.06,215.95L156.06,215.95c0.04,0.6,0.08,1.21,0.12,1.81c0.69-0.55,1.39-1.11,2.08-1.66
		c15.32-15.04,33.5-18.8,53.61-12.71c14.35,4.35,28.4,9.69,42.55,14.69c5.75,2.03,11.39,4.35,17.09,6.54
		c0.78-0.07,1.56-0.14,2.34-0.22c0.07-0.97,0.21-1.94,0.21-2.91c0.01-68.4,0.01-136.8,0-205.2c0-1.1-0.19-2.2-0.28-3.31
		c-0.26-0.24-0.53-0.48-0.79-0.71c-16.4,0.51-32.42-2.47-48.46-5.27c-6.21-1.08-12.41-2.16-18.62-3.24c-4.75,0-9.5,0-14.25,0
		c-0.31,0.23-0.6,0.63-0.93,0.66c-12.36,0.95-22.53,6.54-31.56,14.69c-2.33,2.1-3.36,4.29-3.35,7.56
		c0.11,50.81,0.07,101.62,0.09,152.43C155.9,191.4,156,203.68,156.06,215.95z"/>
	<path class="st2" d="M28.2,224.42c0.76,0.06,1.53,0.11,2.29,0.17c1.44-0.48,2.9-0.9,4.31-1.44c16.87-6.4,33.62-13.14,50.65-19.09
		c10.51-3.67,21.52-4.51,32.47-1.29c9.14,2.68,16.66,8.17,23.82,14.22c0.42-0.04,0.84-0.08,1.26-0.11
		c0.1-8.65,0.29-17.29,0.29-25.94c-0.02-54.85-0.08-109.69-0.13-164.54c0-1.11-0.13-2.22-0.19-3.33c-0.24-0.33-0.48-0.66-0.72-0.99
		c-7.09-7.5-15.46-12.98-25.39-15.93c-2.98-0.89-6.02-1.58-9.03-2.36c-4.47,0-8.94,0-13.41,0c-2.1,0.41-4.19,0.9-6.31,1.23
		c-19.6,3.05-38.91,8.28-58.99,7.69c-0.31,0.38-0.62,0.77-0.94,1.15c-0.07,1.11-0.2,2.22-0.2,3.33c-0.01,67.97-0.01,135.94,0,203.91
		C27.99,222.21,28.12,223.32,28.2,224.42z"/>
	<path class="st2" d="M296.78,20.73c-0.29-5.73-3.73-8.59-9.67-8.08c-0.29,0.41-0.58,0.83-0.87,1.24c-0.07,1.67-0.21,3.34-0.21,5.01
		c-0.01,69.05-0.01,138.09-0.01,207.14c0,1.6,0,3.21,0,4.79c-90.29,0-179.89,0-269.91,0c0-1.88,0-3.53,0-5.18
		c0-68.91,0-137.81-0.01-206.72c0-1.67-0.15-3.34-0.23-5c-0.33-0.44-0.66-0.88-0.99-1.32c-6.67-0.44-9.58,2.52-9.58,9.83
		C5.29,92.35,5.29,162.26,5.28,232.17c0,8.22,2.48,10.73,10.7,10.73c31.99,0,63.98,0,95.97,0c1.52,0,3.05,0,4.59,0
		c-0.42,5.85,0.75,8.02,5.38,10.26c-0.05,0.24,0,0.45,0.16,0.63c19.28,0,38.56,0,57.84,0c0.13-0.2,0.18-0.41,0.15-0.64
		c4.77-1.68,6.03-5.34,5.49-10.24c1.63,0,3.15,0,4.67,0c31.98,0,63.95,0,95.93,0c7.91,0,10.66-2.72,10.66-10.45
		c0-69.18-0.01-138.35-0.01-207.53C296.8,23.52,296.85,22.12,296.78,20.73z"/>
</g>
</svg>
