<?xml version="1.0" encoding="utf-8"?>
<!-- Generator: Adobe Illustrator 24.0.2, SVG Export Plug-In . SVG Version: 6.00 Build 0)  -->
<svg version="1.1" id="Layer_1" xmlns="http://www.w3.org/2000/svg" xmlns:xlink="http://www.w3.org/1999/xlink" x="0px" y="0px"
	 viewBox="0 0 974.8 258.1" style="enable-background:new 0 0 974.8 258.1;" xml:space="preserve">
<style type="text/css">
	.st0{fill:#020202;}
	.st1{fill:#48331B;}
	.st2{fill:#4A351D;}
	.st3{fill:#48331A;}
	.st4{fill:#49341C;}
</style>
<g>
	<path class="st0" d="M665.4,34.2c-10.7-11.3-24-17.5-39.4-19.2c-32.3-3.5-62.7,15.4-68.1,46.7c-2-9.4-5.5-18.1-12-25.3
		c-18.9-20.7-42.4-26.3-68.6-18.9c-20.8,5.9-35.6,19.5-39.8,41.6c-4.4,23,2,42.7,21.3,57c14.7,10.9,31.5,13.4,49.3,10.9
		c22.9-3.2,43.7-21.6,48.8-43.3c0.3-1.1,0.5-2.1,0.9-3.7c1.5,4.9,2.5,9.1,4.2,13c1.7,3.9,3.8,7.8,6.4,11.2
		c23.6,31.4,74.2,31.7,99.5,0.8C684.8,84.5,683.8,53.5,665.4,34.2z M513.3,109.3c-0.6,3.8-2.8,7.6-5.2,10.8
		c-6.4,8.7-23.2,7-25.8-4.7c-2.1-9.2-4.3-18.5-5.1-27.8c-1.4-17.7-1.2-35.5,2.8-52.9c0.8-3.3,2.1-6.7,3.8-9.6
		c6.5-10.7,20.9-10.6,26.4,0.6c3.1,6.2,4.2,13.5,5.6,20.4c0.9,4.1,0.8,8.3,1,12.5c0.2,4,0,8.1,0,12.2c0.4,0,0.9,0.1,1.3,0.1
		C516.6,83.6,515.4,96.5,513.3,109.3z M634.9,109.4c-0.6,3.7-2.7,7.3-5,10.4c-3.6,5-9,6.3-14.9,5.4c-5.7-0.9-9.9-4.2-11.2-9.9
		c-2-9.2-4.3-18.5-5.1-27.9c-1.4-17.6-1.2-35.2,2.8-52.5c0.8-3.7,2.3-7.5,4.4-10.7c6.5-9.7,20.2-9.6,25.5,0.8
		c3.3,6.4,4.8,13.9,6,21.1c1.2,8,1.1,16.1,1.5,24.2c0.3,0.1,0.5,0.1,0.8,0.2C638.2,83.4,636.9,96.4,634.9,109.4z"/>
	<path class="st0" d="M412.9,69.5c-5.4-0.9-11-0.9-16.5-1.3c1.2-0.6,2.4-0.7,3.6-0.8c8.3-0.5,16.3-1.9,23.3-7
		c3.7-2.7,6.1-6.1,7.1-10.5c3.4-14.7-5-28.6-19.8-31.8c-5.3-1.1-10.8-1.7-16.2-1.7c-25.7-0.2-51.4-0.1-77.1-0.1
		c-1,0-1.9,0.1-2.8,0.2c-0.1,0.3-0.3,0.6-0.4,0.8c0.8,0.5,1.5,1.3,2.3,1.5c2.2,0.4,4.5,0.4,6.7,0.6c6.8,0.8,8.6,2.7,9.4,9.5
		c0.1,1.1,0.1,2.2,0.1,3.3c0,26.1,0,52.3,0,78.4c0,1.7-0.3,3.3-0.5,5c-0.5,4.5-3,7-7.6,7.3c-3.3,0.2-6.5,0.7-9.8,1.1
		c-0.1,0.4-0.1,0.9-0.2,1.3c1.3,0.3,2.5,0.7,3.8,0.7c24.4,0.1,48.9,0.1,73.3,0.1c6.3,0,12.6-0.3,18.8-0.9
		c15.9-1.4,26.5-11.9,27-26.2C437.9,81.9,430.1,72.3,412.9,69.5z M369.6,18.7c4.1,0.4,8,0.7,11.9,1.2c3.7,0.5,6.4,2.5,8.1,5.9
		c5.4,11,5.5,22.3,1.8,33.7c-1.3,4-4.3,6.2-8.2,6.9c-4.4,0.7-8.8,1-13.5,1.5C369.6,51.3,369.6,35.4,369.6,18.7z M396.6,109.3
		c-0.3,1.6-0.8,3.2-1.3,4.8c-1.5,5.2-4.8,8.4-10.4,8.8c-5.1,0.4-10.2,0.7-15.5,1.1c0-18.4,0-36,0-54.2c5.8,0.4,11.6,0.1,17,1.4
		c2.7,0.7,5.5,3.7,7.1,6.4C399.3,87.6,398.7,98.4,396.6,109.3z"/>
	<path class="st0" d="M820.9,123.6c-6.7-0.2-11.6-3.3-15.1-9c-1-1.7-2.3-3.2-3.3-4.8c-13.5-20.7-26.9-41.4-40.3-62.1
		c-0.3-0.5-0.6-1.2-0.9-1.8c4.1-4.7,8.2-9.1,12-13.8c6.3-7.9,13.7-13.5,24.4-13.3c0.7,0,1.4-1,2.9-2.3c-14.1,0-26.9,0-39.6,0
		c-0.1,0.4-0.2,0.7-0.4,1.1c1,0.4,1.9,1.1,2.9,1.3c3.4,0.8,8.1-0.8,9.7,3.2c1.7,4.2-1.9,7.3-4.4,10.2c-11.8,14-23.8,27.8-35.7,41.7
		c-0.3,0.3-0.7,0.5-1.4,1c0-14.7-0.2-29,0.1-43.2c0.2-10.9,1-11.4,11.9-12.9c1-0.1,1.9-0.9,2.8-1.4c-0.1-0.3-0.3-0.7-0.4-1
		c-22.5,0-45,0-67.6,0c0.3,1.3,0.9,2.1,1.6,2.3c1.6,0.4,3.3,0.4,5,0.6c7.2,0.8,9.3,2.6,9.3,9.7c0.2,28.1,0.2,56.2,0,84.3
		c0,6.7-2.4,8.9-9.1,9.6c-1.8,0.2-3.7,0.2-5.4,0.7c-0.6,0.2-1,1.2-2,2.4c23.1,0,45.3,0,67.4,0c0.2-0.6,0.4-1.1,0.6-1.6
		c-1.4-0.3-2.7-0.8-4.1-1c-8.2-1.1-9.6-2.2-10-10.4c-0.4-9.8-0.1-19.6-0.4-29.3c-0.1-3.9,1.5-6.1,4.5-8.4
		c8.5,12.8,16.8,25.3,25.1,37.9c0.9,1.4,1.6,3,2.1,4.5c0.8,2.9,0.1,5-3.4,5.2c-2.5,0.2-5,0.4-7.5,0.7c-0.5,0.1-0.9,1-1.4,1.5
		c0.5,0.3,0.9,0.9,1.5,1c1,0.2,2,0.1,2.9,0.1c21.4,0,42.7,0,64.1,0c1.4,0,2.7,0,4.1,0c0.2-0.4,0.3-0.9,0.5-1.4
		C822.9,124.5,821.9,123.7,820.9,123.6z"/>
</g>
<path class="st1" d="M273.8,13c-0.3-0.2-0.5-0.5-0.8-0.7C273.2,12.5,273.5,12.8,273.8,13z"/>
<path class="st2" d="M15.9,13.9c-0.3-0.4-0.7-0.9-1-1.3C15.2,13.1,15.5,13.5,15.9,13.9z"/>
<path class="st3" d="M29.1,12.7c-0.3,0.4-0.6,0.8-0.9,1.1C28.5,13.5,28.8,13.1,29.1,12.7z"/>
<path class="st4" d="M287.1,12.6c-0.3,0.4-0.6,0.8-0.9,1.2C286.5,13.5,286.8,13.1,287.1,12.6z"/>
<path class="st3" d="M143,23.1c-0.2-0.3-0.5-0.7-0.7-1C142.5,22.4,142.7,22.7,143,23.1z"/>
<g>
	<path class="st3" d="M156.1,215.9L156.1,215.9c0,0.6,0.1,1.2,0.1,1.8c0.7-0.6,1.4-1.1,2.1-1.7c15.3-15,33.5-18.8,53.6-12.7
		c14.4,4.4,28.4,9.7,42.6,14.7c5.7,2,11.4,4.4,17.1,6.5c0.8-0.1,1.6-0.1,2.3-0.2c0.1-1,0.2-1.9,0.2-2.9c0-68.4,0-136.8,0-205.2
		c0-1.1-0.2-2.2-0.3-3.3c-0.3-0.2-0.5-0.5-0.8-0.7c-16.4,0.5-32.4-2.5-48.5-5.3c-6.2-1.1-12.4-2.2-18.6-3.2c-4.8,0-9.5,0-14.3,0
		c-0.3,0.2-0.6,0.6-0.9,0.7c-12.4,0.9-22.5,6.5-31.6,14.7c-2.3,2.1-3.4,4.3-3.4,7.6c0.1,50.8,0.1,101.6,0.1,152.4
		C155.9,191.4,156,203.7,156.1,215.9z"/>
	<path class="st3" d="M28.2,224.4c0.8,0.1,1.5,0.1,2.3,0.2c1.4-0.5,2.9-0.9,4.3-1.4c16.9-6.4,33.6-13.1,50.7-19.1
		c10.5-3.7,21.5-4.5,32.5-1.3c9.1,2.7,16.7,8.2,23.8,14.2c0.4,0,0.8-0.1,1.3-0.1c0.1-8.6,0.3-17.3,0.3-25.9
		c0-54.9-0.1-109.7-0.1-164.5c0-1.1-0.1-2.2-0.2-3.3c-0.2-0.3-0.5-0.7-0.7-1c-7.1-7.5-15.5-13-25.4-15.9c-3-0.9-6-1.6-9-2.4
		c-4.5,0-8.9,0-13.4,0c-2.1,0.4-4.2,0.9-6.3,1.2c-19.6,3.1-38.9,8.3-59,7.7c-0.3,0.4-0.6,0.8-0.9,1.1C28.1,15,28,16.1,28,17.2
		c0,68,0,135.9,0,203.9C28,222.2,28.1,223.3,28.2,224.4z"/>
	<path class="st3" d="M589.3,159.3c-10.6-10.7-23.5-16.9-38.5-18.4c-22.5-2.1-42,4.1-57,21.8c-19.9,23.5-17.5,74.2,29.9,88.6
		c3,0.9,6,1.7,9,2.5c6.4,0,12.8,0,19.3,0c0.6-0.3,1.1-0.7,1.7-0.8c14.3-2.2,26.4-8.9,36.2-19.3C609.6,212.9,609.2,179.5,589.3,159.3
		z M559.4,235.3c-0.5,3.5-2.6,7.1-4.7,10.1c-3.5,5-8.8,6.6-14.8,5.7c-5.9-0.9-10.2-4.1-11.5-10.1c-2-9.2-4.3-18.5-5-27.9
		c-1.4-17.6-1.2-35.2,2.8-52.5c0.8-3.7,2.3-7.5,4.5-10.7c6.5-9.7,20.2-9.5,25.5,0.9c3.2,6.4,4.8,13.9,5.9,21.1
		c1.2,8,1.1,16.1,1.5,24.2c0.3,0.1,0.5,0.1,0.8,0.1C562.7,209.4,561.4,222.4,559.4,235.3z"/>
	<path class="st3" d="M968.9,213c-2.4-13.8-10.8-22.7-23-28.3c-7.9-3.6-16-6.6-23.9-10c-5-2.2-10-4.4-14.6-7.2
		c-5.2-3.1-8-8-6.6-14.2c1.3-5.7,6-8.3,11.2-9.5c10.2-2.3,19.4,0.4,27.3,7.1c8.2,7,14.6,15.4,17.7,25.9c0.5,1.7,0.8,4.1,3.8,2.5
		c0-12.2,0-24.4-0.1-36.6c0-0.9-1.1-1.8-1.7-2.7c-1.3,3.3-1.6,5.9-2.3,8.4c-1.2,4.1-4.3,5.3-8.1,3.3c-4.5-2.4-9-5.1-13.6-7.4
		c-14.2-7.1-31.3-4.7-43.8,5.9c-12.3,10.4-14.5,23.5-10.5,38.3c1.6,5.8,4.9,10.4,10.2,13.2c8.3,4.3,16.6,8.5,25.1,12.4
		c7.1,3.3,14.4,6,21.5,9.2c4.2,1.9,7.4,4.9,8.6,9.7c2.3,9.8-4.1,17.7-14.9,18c-17.2,0.5-29.8-8-38.3-22.1c-4.8-8-7.6-17.3-11.4-25.9
		c-0.5-1.2-1.5-2.2-2.3-3.3c-0.3,0.2-0.7,0.5-1,0.7c0,17.7,0,35.5,0,53.2c0.8,0,1.7,0,2.5,0c0.6-3.4,1-6.9,1.7-10.3
		c1.2-5.4,4.7-7,9.7-4.4c3.7,1.9,7.1,4.4,10.9,6.2c6.2,3,12.5,5.6,18.8,8.4c4.8,0,9.5,0,14.3,0c5.2-2,10.7-3.6,15.7-6.2
		c8.4-4.5,14.7-11,17.1-20.6c0.1-0.3,0.5-0.6,0.8-0.8c0-4.2,0-8.4,0-12.6C969.3,213.4,969,213.2,968.9,213z"/>
	<path class="st3" d="M868.7,145.6c2.9-0.4,5.8-0.5,8.7-0.9c0.9-0.1,1.7-0.9,2.5-1.3c-0.2-0.4-0.4-0.8-0.5-1.2
		c-17.4,0-34.9-0.1-52.3,0.1c-1,0-2.3,1.6-2.7,2.8c-4,11-7.8,22.1-11.7,33.1c-3.3,9.4-6.6,18.9-10.2,29c-0.7-1.7-1.1-2.7-1.5-3.7
		c-7.5-19.4-15.1-38.7-22.5-58.1c-0.9-2.4-2-3.4-4.7-3.4c-16.5,0.1-33,0.1-49.4,0.1c-1,0-2,0.2-3,0.3c-0.1,0.3-0.2,0.7-0.3,1
		c0.8,0.4,1.5,1.1,2.3,1.2c2.1,0.3,4.2,0.4,6.3,0.6c7.3,0.8,11.2,4.6,11.2,11.9c0.2,16.4,0.2,32.7,0.2,49.1c0,10.3,0,20.7-0.2,31
		c-0.2,7.5-3.2,10.7-10.5,11.5c-2.9,0.3-5.8,0.5-8.8,0.7c8.2-6,12.6-14,12.2-24.3c0-1.2-0.5-2.4-0.7-3.5c-0.4,0.1-0.8,0.1-1.2,0.2
		c-0.6,3.8-0.8,7.7-1.9,11.3c-0.7,2-2.6,4.5-4.5,5.1c-3,1-4.8-1.6-5.8-4.2c-1.1-2.8-2.3-5.7-3.1-8.6c-4.4-14.7-13.4-24.2-29.1-26.4
		c-1.9-0.3-3.7-1-5.5-1.5c4-0.9,7.8-1.1,11.5-1.6c14.3-1.8,22.7-10.8,23.7-25.3c0.9-11.9-7.1-22.8-19.9-26
		c-6.7-1.6-13.8-2.4-20.7-2.4c-24.4-0.3-48.9-0.1-73.3-0.1c-0.8,0-1.6,0.2-2.3,0.3c0.5,1.4,1.3,2.1,2.2,2.2c2.2,0.4,4.4,0.4,6.7,0.7
		c5.8,0.7,7.5,2.3,8.4,8c0.4,2.9,0.5,5.9,0.5,8.8c0,23.4,0,46.7,0,70.1c0,3.2-0.3,6.4-0.6,9.6c-0.5,4.4-3.1,6.6-7.5,6.9
		c-2.6,0.2-5.3,0.4-7.9,0.8c-0.9,0.1-1.6,0.9-2.4,1.3c0.1,0.3,0.3,0.6,0.4,0.8c24.2,0,48.3,0,72.9,0c-1.2-3.7-4.1-2.3-6-2.6
		c-9.6-1.3-11.7-3.3-11.9-13.1c-0.2-12.4-0.1-24.9-0.1-37.3c0-0.6,0.2-1.3,0.4-2c1.5,0,2.7,0,4,0c8.3,0.2,10.9,2.1,12.4,10.4
		c1.1,5.8,1.8,11.6,2.6,17.4c1.8,13.5,7,24.4,21.3,28.5c0.2,0.1,0.3,0.4,0.4,0.6c4.5,0,8.9,0,13.4,0c3.6-1.4,7.3-2.8,10.9-4.2
		c-0.3,2.4,1.2,2.6,3.1,2.6c8.5-0.1,17,0,25.6,0c5,0,10,0,15,0c0.1-0.4,0.3-0.8,0.4-1.1c-0.8-0.5-1.6-1.3-2.4-1.5
		c-2.3-0.4-4.7-0.5-7.1-0.7c-6.9-0.5-9.7-3.1-10.4-10.1c-0.3-2.9-0.5-5.9-0.5-8.8c0-21.9,0-43.9,0-65.8c0-1,0.2-2,0.3-3
		c0.2,0,0.5-0.1,0.7-0.1c12.3,30.3,24.5,60.6,36.7,90.9c3.3,0,6.3,0,9.6,0c11-32.6,22-65.1,32.5-95.8c0,7,0,15.7,0,24.4
		c0,18.3,0.1,36.6-0.2,54.9c-0.2,12.4-0.5,12.4-12.9,14c-0.9,0.1-1.8,0.9-2.6,1.4c0.2,0.3,0.3,0.6,0.5,0.8c22.8,0,45.5,0,68.5,0
		c-1.4-2.1-1.4-2.1-6-2.7c-8.4-1-10-2.2-10-10.7c-0.3-26.1-0.3-52.3-0.3-78.4c0-2.2,0.2-4.5,0.5-6.7
		C861.9,148.4,863.9,146.3,868.7,145.6z M675.5,187.5c-1.8,3.8-4.9,6.1-9.1,6.4c-3.6,0.2-7.2,0-11,0c0-16.4,0-32.6,0-49.6
		c4.8,0.7,9.4,1,13.7,2.3c2.3,0.7,4.5,2.9,5.7,5.1C681.4,163.4,681,175.4,675.5,187.5z"/>
	<path class="st3" d="M296.8,20.7c-0.3-5.7-3.7-8.6-9.7-8.1c-0.3,0.4-0.6,0.8-0.9,1.2c-0.1,1.7-0.2,3.3-0.2,5
		c0,69.1,0,138.1,0,207.1c0,1.6,0,3.2,0,4.8c-90.3,0-179.9,0-269.9,0c0-1.9,0-3.5,0-5.2c0-68.9,0-137.8,0-206.7c0-1.7-0.1-3.3-0.2-5
		c-0.3-0.4-0.7-0.9-1-1.3c-6.7-0.4-9.6,2.5-9.6,9.8c0,69.9,0,139.8,0,209.7c0,8.2,2.5,10.7,10.7,10.7c32,0,64,0,96,0
		c1.5,0,3.1,0,4.6,0c-0.4,5.9,0.8,8,5.4,10.3c-0.1,0.2,0,0.4,0.2,0.6c19.3,0,38.6,0,57.8,0c0.1-0.2,0.2-0.4,0.1-0.6
		c4.8-1.7,6-5.3,5.5-10.2c1.6,0,3.1,0,4.7,0c32,0,63.9,0,95.9,0c7.9,0,10.7-2.7,10.7-10.4c0-69.2,0-138.4,0-207.5
		C296.8,23.5,296.9,22.1,296.8,20.7z"/>
	<path class="st3" d="M497,142.5c-14.2,0-27.1,0-40,0c0.4,1.4,1.2,2.1,2.1,2.3c2.2,0.4,4.5,0.4,6.6,0.7c4.9,0.8,6.8,3.1,6.3,8.1
		c-0.1,1.5-0.2,3.1-0.7,4.5c-6.3,17.4-12.6,34.8-19.1,52.9c-0.8-1.4-1.2-2-1.4-2.6c-5.7-15.9-11.4-31.7-17-47.7
		c-1-2.9-1.6-5.9-2.1-8.9c-0.5-3.2,0.8-5.4,4.3-6c2.2-0.4,4.4-0.6,6.6-1.1c0.7-0.1,1.2-0.7,1.9-1.1c-0.6-0.5-1.3-1-2-1.4
		c-0.5-0.2-1.1,0-1.7,0c-19.7,0-39.4,0-59.1,0c-1,0-2.1,0.2-3.1,0.3c-0.1,0.5-0.3,0.9-0.4,1.4c1.4,0.5,2.8,1.3,4.2,1.4
		c4.2,0.3,7,2.4,8.6,6.2c2.2,5.4,4.6,10.8,6.6,16.3c0.6,1.6,0.6,3.8,0,5.5c-3.6,9.8-7.5,19.5-11.3,29.3c-0.8,2.2-1.7,4.3-3,7.5
		c-6.6-18.3-13-35.4-18.9-52.6c-3.7-10.9-1.2-11.7,7.5-12.6c0.9-0.1,1.8-0.9,2.7-1.4c-0.1-0.3-0.3-0.6-0.5-0.8c-21.7,0-43.3,0-65,0
		c-0.1,0.5-0.3,1-0.4,1.5c1.6,0.4,3.1,1.1,4.7,1.2c4.4,0.2,7.3,2.5,9.1,6.3c0.8,1.8,1.8,3.5,2.5,5.3c9.8,26.7,19.5,53.4,29.2,80.1
		c1.8,5.1,3.7,10.1,5.5,15.1c2.8,0,5.2-0.2,7.5,0.1c3.5,0.4,5-0.9,6.2-4.2c8.3-22.8,16.8-45.5,25.3-68.2c0.5-1.3,1.1-2.6,2-4.4
		c9.3,26,18.3,51.4,27.4,76.8c2.7,0,5.2-0.2,7.7,0.1c3.3,0.4,4.8-0.7,6-4c10.7-28.7,21.8-57.3,32.4-86.1c3.6-9.8,8.1-17.5,20-17.3
		C494.8,144.8,495.6,143.7,497,142.5z"/>
</g>
</svg>
